{"title":"Black Death-720p MP4 AAC x264 BRRip 2010-CC","uid":7153927,"size":2013630282,"categoryP":"video","categoryS":"hd___movies","magnet":"?xt=urn:btih:daf11907b6ea40144a86a2c3b7b9480b6ba79ff3&amp;dn=Black+Death-720p+MP4+AAC+x264+BRRip+2010-CC&amp;tr=udp%3A%2F%2Ftracker.openbittorrent.com%3A80&amp;tr=udp%3A%2F%2Fopen.demonii.com%3A1337&amp;tr=udp%3A%2F%2Ftracker.coppersurfer.tk%3A6969&amp;tr=udp%3A%2F%2Fexodus.desync.com%3A6969","seeders":1,"leechers":0,"uploader":"Caveman44","files":-1,"time":1333401149,"description":"Source: Black.Death.2010.720p.BluRay.x264-WiKi\n\nSubs: Albanian, Arabic, Brazilian, Croatian, Danish, Dutch, English, Finnish, French, Greek, Hungarian, Indonesian, Italian, Norwegian, Portuguese, Romanian, Servian, Slovenian, Spanish,Swedish and Vietnamese.\n\nSample and Screens included.\n\nGeneral\nComplete name                    : Black Death-720p MP4 AAC x264 BRRip 2010-CC.mp4\nFormat                           : MPEG-4\nFormat profile                   : Base Media\nCodec ID                         : isom\nFile size                        : 1.85 GiB\nDuration                         : 1h 41mn\nOverall bit rate                 : 2 611 Kbps\nEncoded date                     : UTC 2012-03-31 09:47:24\n\nVideo\nID                               : 1\nFormat                           : AVC\nFormat/Info                      : Advanced Video Codec\nFormat profile                   : &lt;a class=&quot;__cf_email__&quot; href=&quot;/cdn-cgi/l/email-protection&quot; data-cfemail=&quot;84ccede3ecc4c8b7aab5&quot;&gt;[email&amp;#160;protected]&lt;/a&gt;&lt;script cf-hash='f9e31' type=&quot;text/javascript&quot;&gt;\n/* &lt;![CDATA[ */!function(){try{var t=&quot;currentScript&quot;in document?document.currentScript:function(){for(var t=document.getElementsByTagName(&quot;script&quot;),e=t.length;e--;)if(t[e].getAttribute(&quot;cf-hash&quot;))return t[e]}();if(t&amp;&amp;t.previousSibling){var e,r,n,i,c=t.previousSibling,a=c.getAttribute(&quot;data-cfemail&quot;);if(a){for(e=&quot;&quot;,r=parseInt(a.substr(0,2),16),n=2;a.length-n;n+=2)i=parseInt(a.substr(n,2),16)^r,e+=String.fromCharCode(i);e=document.createTextNode(e),c.parentNode.replaceChild(e,c)}}}catch(u){}}();/* ]]&gt; */&lt;/script&gt;\nFormat settings, CABAC           : Yes\nFormat settings, ReFrames        : 5 frames\nCodec ID                         : avc1\nCodec ID/Info                    : Advanced Video Coding\nDuration                         : 1h 41mn\nBit rate mode                    : Variable\nBit rate                         : 2 223 Kbps\nNominal bit rate                 : 2 326 Kbps\nMaximum bit rate                 : 36.1 Mbps\nWidth                            : 1 280 pixels\nHeight                           : 528 pixels\nDisplay aspect ratio             : 2.40:1\nFrame rate mode                  : Variable\nFrame rate                       : 24.000 fps\nMinimum frame rate               : 15.873 fps\nMaximum frame rate               : 24.390 fps\nResolution                       : 24 bits\nColorimetry                      : 4:2:0\nScan type                        : Progressive\nBits/(Pixel*Frame)               : 0.137\nStream size                      : 1.58 GiB (85%)\nWriting library                  : x264 core 112\n\n\nAudio\nID                               : 2\nFormat                           : AAC\nFormat/Info                      : Advanced Audio Codec\nFormat version                   : Version 4\nFormat profile                   : LC\nFormat settings, SBR             : No\nCodec ID                         : 40\nDuration                         : 1h 41mn\nBit rate mode                    : Variable\nBit rate                         : 384 Kbps\nMaximum bit rate                 : 555 Kbps\nChannel(s)                       : 6 channels\nChannel positions                : Front: L C R, Rear: L R, LFE\nSampling rate                    : 48.0 KHz\nResolution                       : 16 bits\nStream size                      : 279 MiB (15%)\nLanguage                         : English","torrent":{"xt":"urn:btih:daf11907b6ea40144a86a2c3b7b9480b6ba79ff3","amp;dn":"Black+Death-720p+MP4+AAC+x264+BRRip+2010-CC","amp;tr":["udp%3A%2F%2Ftracker.openbittorrent.com%3A80","udp%3A%2F%2Fopen.demonii.com%3A1337","udp%3A%2F%2Ftracker.coppersurfer.tk%3A6969","udp%3A%2F%2Fexodus.desync.com%3A6969"],"infoHash":"daf11907b6ea40144a86a2c3b7b9480b6ba79ff3","infoHashBuffer":{"type":"Buffer","data":[218,241,25,7,182,234,64,20,74,134,162,195,183,185,72,11,107,167,159,243]},"announce":[],"urlList":[]}}